<svg width="52" height="52" viewBox="0 0 52 52" fill="none" xmlns="http://www.w3.org/2000/svg">
<path fill-rule="evenodd" clip-rule="evenodd" d="M14.7262 12.4584L10.2523 12.4585C9.05564 12.4585 8.08558 11.4885 8.08556 10.2918C8.08555 9.09522 9.05558 8.12516 10.2522 8.12514L20.0614 8.125C20.636 8.12499 21.1871 8.35326 21.5935 8.75959C21.9998 9.16592 22.2281 9.71703 22.2281 10.2917L22.2281 19.6969C22.2281 20.8935 21.258 21.8635 20.0614 21.8635C18.8648 21.8635 17.8947 20.8935 17.8947 19.6969L17.8947 15.4216L10.1773 22.9279C9.31956 23.7622 7.94784 23.7432 7.11351 22.8854C6.27919 22.0277 6.2982 20.6559 7.15599 19.8216L14.7262 12.4584Z" fill="white"/>
<path fill-rule="evenodd" clip-rule="evenodd" d="M33.1346 13.0931C33.5409 12.6868 34.092 12.4585 34.6667 12.4585L43.3333 12.4586C44.53 12.4586 45.5 13.4286 45.5 14.6252C45.5 15.8219 44.5299 16.7919 43.3333 16.7919L36.8333 16.7918V23.2918C36.8333 24.4884 35.8633 25.4585 34.6667 25.4585H28.1667V31.9585C28.1667 33.1551 27.1966 34.1252 26 34.1252H19.5V40.6252C19.5 41.1998 19.2717 41.7509 18.8654 42.1572C18.4591 42.5636 17.908 42.7918 17.3333 42.7918L8.66665 42.7918C7.47004 42.7918 6.49999 41.8217 6.5 40.6251C6.50001 39.4285 7.47006 38.4584 8.66668 38.4584L15.1667 38.4585V31.9585C15.1667 30.7619 16.1367 29.7918 17.3333 29.7918H23.8333V23.2918C23.8333 22.0952 24.8034 21.1252 26 21.1252H32.5V14.6252C32.5 14.0505 32.7283 13.4994 33.1346 13.0931Z" fill="white"/>
</svg>
