<svg width="52" height="52" viewBox="0 0 52 52" fill="none" xmlns="http://www.w3.org/2000/svg">
<path fill-rule="evenodd" clip-rule="evenodd" d="M37.9984 19.2081L33.5245 19.208C32.3279 19.208 31.3578 20.1781 31.3578 21.3747C31.3578 22.5713 32.3278 23.5413 33.5244 23.5414L43.3336 23.5415C43.9082 23.5415 44.4593 23.3132 44.8657 22.9069C45.272 22.5006 45.5003 21.9495 45.5003 21.3748L45.5003 11.9696C45.5003 10.773 44.5302 9.80296 43.3336 9.80296C42.137 9.80296 41.1669 10.773 41.1669 11.9696L41.1669 16.2449L33.4496 8.73858C32.5918 7.90425 31.2201 7.92327 30.3857 8.78106C29.5514 9.63884 29.5704 11.0106 30.4282 11.8449L37.9984 19.2081Z" fill="white"/>
<path fill-rule="evenodd" clip-rule="evenodd" d="M18.8654 13.0931C18.4591 12.6868 17.908 12.4585 17.3333 12.4585L8.66665 12.4586C7.47003 12.4586 6.49999 13.4286 6.5 14.6252C6.50001 15.8219 7.47006 16.7919 8.66668 16.7919L15.1667 16.7918V23.2918C15.1667 24.4884 16.1367 25.4585 17.3333 25.4585H23.8333V31.9585C23.8333 33.1551 24.8034 34.1252 26 34.1252H32.5V40.6252C32.5 41.1998 32.7283 41.7509 33.1346 42.1572C33.5409 42.5636 34.092 42.7918 34.6667 42.7918L43.3333 42.7918C44.53 42.7918 45.5 41.8217 45.5 40.6251C45.5 39.4285 44.5299 38.4584 43.3333 38.4584L36.8333 38.4585V31.9585C36.8333 30.7619 35.8633 29.7918 34.6667 29.7918H28.1667V23.2918C28.1667 22.0952 27.1966 21.1252 26 21.1252H19.5V14.6252C19.5 14.0505 19.2717 13.4994 18.8654 13.0931Z" fill="white"/>
</svg>
