<svg width="24" height="24" viewBox="0 0 24 24" fill="none" xmlns="http://www.w3.org/2000/svg">
<path fill-rule="evenodd" clip-rule="evenodd" d="M7.88889 4C8.28776 4 8.61111 4.32561 8.61111 4.72727V9.67943C8.63899 9.66929 8.66682 9.65844 8.69444 9.64685C8.8912 9.5643 9.04778 9.4566 9.15305 9.32409C9.24927 9.20298 9.33333 9.02402 9.33333 8.72727V5.09091C9.33333 4.68925 9.65668 4.36364 10.0556 4.36364C10.4544 4.36364 10.7778 4.68925 10.7778 5.09091V8.72727C10.7778 9.33962 10.591 9.84248 10.281 10.2327C9.98 10.6116 9.59491 10.8448 9.25 10.9895C9.02512 11.0839 8.80451 11.1461 8.61111 11.1873V19.2727C8.61111 19.6744 8.28776 20 7.88889 20C7.49002 20 7.16667 19.6744 7.16667 19.2727V11.1873C6.97327 11.1461 6.75266 11.0839 6.52778 10.9895C6.18287 10.8448 5.79778 10.6116 5.4968 10.2327C5.18677 9.84248 5 9.33962 5 8.72727V5.09091C5 4.68925 5.32335 4.36364 5.72222 4.36364C6.12109 4.36364 6.44444 4.68925 6.44444 5.09091V8.72727C6.44444 9.02402 6.52851 9.20298 6.62472 9.32409C6.73 9.4566 6.88657 9.5643 7.08333 9.64685C7.11096 9.65844 7.13879 9.66929 7.16667 9.67943V4.72727C7.16667 4.32561 7.49002 4 7.88889 4ZM14.1568 6.01569C13.8672 6.40459 13.6667 6.97518 13.6667 7.63636C13.6667 8.29755 13.8672 8.86814 14.1568 9.25704C14.4463 9.64572 14.7911 9.81818 15.1111 9.81818C15.4311 9.81818 15.7759 9.64572 16.0654 9.25704C16.355 8.86814 16.5556 8.29755 16.5556 7.63636C16.5556 6.97518 16.355 6.40459 16.0654 6.01569C15.7759 5.62701 15.4311 5.45455 15.1111 5.45455C14.7911 5.45455 14.4463 5.62701 14.1568 6.01569ZM13.0013 5.14296C13.496 4.47876 14.2345 4 15.1111 4C15.9877 4 16.7263 4.47876 17.221 5.14296C17.7155 5.80694 18 6.6909 18 7.63636C18 8.58184 17.7155 9.46579 17.221 10.1298C16.8691 10.6022 16.3939 10.9808 15.8333 11.1601V19.2727C15.8333 19.6744 15.51 20 15.1111 20C14.7122 20 14.3889 19.6744 14.3889 19.2727V11.1601C13.8284 10.9808 13.3531 10.6022 13.0013 10.1298C12.5067 9.46579 12.2222 8.58184 12.2222 7.63636C12.2222 6.6909 12.5067 5.80694 13.0013 5.14296Z" fill="#828180"/>
</svg>
