<svg width="24" height="24" viewBox="0 0 24 24" fill="none" xmlns="http://www.w3.org/2000/svg">
<path fill-rule="evenodd" clip-rule="evenodd" d="M4.22164 4.22213C8.51717 -0.0733929 15.4823 -0.0733929 19.7779 4.22213C24.0734 8.51766 24.0734 15.4828 19.7779 19.7783C15.4823 24.0739 8.51717 24.0739 4.22164 19.7783C-0.0738811 15.4828 -0.0738811 8.51766 4.22164 4.22213ZM18.3636 5.63634C14.8492 2.12187 9.15033 2.12187 5.63586 5.63634C2.12138 9.15082 2.12138 14.8497 5.63586 18.3641C9.15033 21.8786 14.8492 21.8786 18.3636 18.3641C21.8781 14.8497 21.8781 9.15082 18.3636 5.63634ZM8.46471 8.46407C8.85526 8.07358 9.48843 8.07364 9.87892 8.46419L11.9998 10.5854L14.1206 8.46419C14.5111 8.07364 15.1442 8.07358 15.5348 8.46407C15.9254 8.85456 15.9254 9.48772 15.5349 9.87828L13.4138 11.9997L15.5349 14.1212C15.9254 14.5118 15.9254 15.1449 15.5348 15.5354C15.1442 15.9259 14.5111 15.9258 14.1206 15.5353L11.9998 13.4141L9.87892 15.5353C9.48843 15.9258 8.85526 15.9259 8.46471 15.5354C8.07415 15.1449 8.07409 14.5118 8.46458 14.1212L10.5857 11.9997L8.46458 9.87828C8.07409 9.48772 8.07415 8.85456 8.46471 8.46407Z" fill="#C7C5C4"/>
</svg>
