<svg width="32" height="32" viewBox="0 0 32 32" fill="none" xmlns="http://www.w3.org/2000/svg">
<g clip-path="url(#clip0_34_1984)">
<path fill-rule="evenodd" clip-rule="evenodd" d="M8.39052 8.39052C8.91122 7.86983 9.75544 7.86983 10.2761 8.39052L23.6095 21.7239C24.1302 22.2446 24.1302 23.0888 23.6095 23.6095C23.0888 24.1302 22.2446 24.1302 21.7239 23.6095L8.39052 10.2761C7.86983 9.75544 7.86983 8.91122 8.39052 8.39052Z" fill="#828180"/>
<path fill-rule="evenodd" clip-rule="evenodd" d="M23.6095 8.39052C24.1302 8.91122 24.1302 9.75544 23.6095 10.2761L10.2761 23.6095C9.75544 24.1302 8.91122 24.1302 8.39052 23.6095C7.86983 23.0888 7.86983 22.2446 8.39052 21.7239L21.7239 8.39052C22.2446 7.86983 23.0888 7.86983 23.6095 8.39052Z" fill="#828180"/>
</g>
<defs>
<clipPath id="clip0_34_1984">
<rect width="13.3333" height="13.3333" fill="white" transform="translate(9.33325 9.3335)"/>
</clipPath>
</defs>
</svg>
