<svg width="24" height="24" viewBox="0 0 24 24" fill="none" xmlns="http://www.w3.org/2000/svg">
<g clip-path="url(#clip0_195_1304)">
<path d="M14.3996 9.6002C14.3996 8.2402 13.3596 7.2002 11.9996 7.2002C10.6396 7.2002 9.59961 8.2402 9.59961 9.6002C9.59961 10.9602 10.6396 12.0002 11.9996 12.0002C13.3596 12.0002 14.3996 10.9602 14.3996 9.6002ZM11.1996 9.6002C11.1996 9.1202 11.5196 8.8002 11.9996 8.8002C12.4796 8.8002 12.7996 9.1202 12.7996 9.6002C12.7996 10.0802 12.4796 10.4002 11.9996 10.4002C11.5196 10.4002 11.1996 10.0002 11.1996 9.6002Z" fill="#828180"/>
<path d="M15.5198 14C16.6398 12.56 17.5998 10.96 17.5998 9.6C17.5998 6.48 15.1198 4 11.9998 4C8.87981 4 6.3998 6.48 6.3998 9.6C6.3998 10.96 7.35981 12.56 8.4798 14C6.1598 14.48 4.7998 15.52 4.7998 16.8C4.7998 18.88 8.39981 20 11.9998 20C15.5998 20 19.1998 18.88 19.1998 16.8C19.1998 15.52 17.8398 14.48 15.5198 14ZM11.9998 5.6C14.2398 5.6 15.9998 7.36 15.9998 9.6C15.9998 11.12 13.7598 13.76 11.9998 15.44C10.2398 13.76 7.9998 11.12 7.9998 9.6C7.9998 7.36 9.75981 5.6 11.9998 5.6ZM11.9998 18.4C8.39981 18.4 6.3998 17.28 6.3998 16.8C6.3998 16.48 7.3598 15.76 9.6798 15.36C10.5598 16.24 11.2798 16.96 11.4398 17.12L11.9998 17.6L12.5598 17.12C12.7198 16.96 13.5198 16.32 14.3198 15.36C16.6398 15.68 17.5998 16.48 17.5998 16.8C17.5998 17.28 15.5998 18.4 11.9998 18.4Z" fill="#828180"/>
</g>
<defs>
<clipPath id="clip0_195_1304">
<rect width="16" height="16" fill="white" transform="translate(4 4)"/>
</clipPath>
</defs>
</svg>
