<svg width="24" height="24" viewBox="0 0 24 24" fill="none" xmlns="http://www.w3.org/2000/svg">
<g clip-path="url(#clip0_195_165)">
<path d="M13.024 12H14.6646C15.1175 12 15.4847 12.3698 15.4847 12.8331C15.4847 13.2933 15.1208 13.6663 14.6646 13.6663H12.2036C11.9785 13.6663 11.7744 13.5749 11.6263 13.4259C11.4754 13.272 11.3836 13.0657 11.3836 12.8409V9.49295C11.3836 9.03703 11.7477 8.66747 12.2038 8.66747C12.6568 8.66747 13.024 9.04322 13.024 9.49295L13.024 12ZM5.7223 9.31763C6.54052 7.15336 8.33233 5.40326 10.7056 4.75736C14.6437 3.68555 18.6914 6.0593 19.7466 10.0594C20.8018 14.0594 18.4649 18.1708 14.5268 19.2426C10.5887 20.3145 6.54102 17.9406 5.48575 13.9407L7.07035 13.5094C7.89097 16.6204 11.0393 18.4668 14.1021 17.6332C17.165 16.7997 18.9828 13.6018 18.1621 10.4908C17.3414 7.37972 14.1931 5.53334 11.1303 6.36693C9.19358 6.89404 7.75466 8.36634 7.16608 10.1643L9.02268 11.2531L5.06153 12.3313L4 8.30758L5.7223 9.31763Z" fill="#828180"/>
</g>
<defs>
<clipPath id="clip0_195_165">
<rect width="16" height="16" fill="white" transform="translate(4 4)"/>
</clipPath>
</defs>
</svg>
