<svg width="24" height="24" viewBox="0 0 24 24" fill="none" xmlns="http://www.w3.org/2000/svg">
<path fill-rule="evenodd" clip-rule="evenodd" d="M7.88235 5.6C7.42753 5.6 7.05883 5.95817 7.05883 6.4C7.05883 6.84183 7.42753 7.2 7.88235 7.2C8.33718 7.2 8.70588 6.84183 8.70588 6.4C8.70588 5.95817 8.33718 5.6 7.88235 5.6ZM5.41177 6.4C5.41177 5.07452 6.51789 4 7.88235 4C9.24682 4 10.3529 5.07452 10.3529 6.4C10.3529 7.72548 9.24682 8.8 7.88235 8.8C6.51789 8.8 5.41177 7.72548 5.41177 6.4ZM15.2941 5.6C14.8393 5.6 14.4706 5.95817 14.4706 6.4C14.4706 6.84183 14.8393 7.2 15.2941 7.2C15.7489 7.2 16.1176 6.84183 16.1176 6.4C16.1176 5.95817 15.7489 5.6 15.2941 5.6ZM12.8235 6.4C12.8235 5.07452 13.9296 4 15.2941 4C16.6586 4 17.7647 5.07452 17.7647 6.4C17.7647 7.72548 16.6586 8.8 15.2941 8.8C13.9296 8.8 12.8235 7.72548 12.8235 6.4ZM5.21542 9.86053C5.37145 9.69456 5.59215 9.6 5.82353 9.6H9.94118C10.1726 9.6 10.3933 9.69456 10.5493 9.86053C10.7053 10.0265 10.7823 10.2486 10.7613 10.4724L9.93779 19.2724C9.89923 19.6845 9.54358 20 9.11765 20H6.64706C6.22113 20 5.86548 19.6845 5.82691 19.2724L5.00339 10.4724C4.98244 10.2486 5.05939 10.0265 5.21542 9.86053ZM6.72532 11.2L7.39912 18.4H8.36559L9.03938 11.2H6.72532ZM12.425 10.2569C12.4962 9.8765 12.8373 9.6 13.2353 9.6H17.3529C17.7509 9.6 18.092 9.8765 18.1632 10.2569L18.9867 14.6569C19.0304 14.8903 18.9652 15.1305 18.8087 15.3126C18.6523 15.4947 18.4207 15.6 18.1765 15.6H17.6932L17.3496 19.2724C17.311 19.6845 16.9553 20 16.5294 20H14.0588C13.6329 20 13.2772 19.6845 13.2387 19.2724L12.895 15.6H12.4118C12.1676 15.6 11.936 15.4947 11.7795 15.3126C11.623 15.1305 11.5578 14.8903 11.6015 14.6569L12.425 10.2569ZM13.3985 14H13.6471C14.073 14 14.4286 14.3155 14.4672 14.7276L14.8109 18.4H15.7773L16.121 14.7276C16.1596 14.3155 16.5152 14 16.9412 14H17.1897L16.6656 11.2H13.9226L13.3985 14Z" fill="#828180"/>
</svg>
