<svg width="24" height="24" viewBox="0 0 24 24" fill="none" xmlns="http://www.w3.org/2000/svg">
<path fill-rule="evenodd" clip-rule="evenodd" d="M15.294 5.6C14.8392 5.6 14.4705 5.95817 14.4705 6.4C14.4705 6.84183 14.8392 7.2 15.294 7.2C15.7488 7.2 16.1176 6.84183 16.1176 6.4C16.1176 5.95817 15.7488 5.6 15.294 5.6ZM12.8234 6.4C12.8234 5.07452 13.9296 4 15.294 4C16.6585 4 17.7646 5.07452 17.7646 6.4C17.7646 7.72548 16.6585 8.8 15.294 8.8C13.9296 8.8 12.8234 7.72548 12.8234 6.4ZM12.425 10.2569C12.4962 9.8765 12.8372 9.6 13.2352 9.6H17.3528C17.7508 9.6 18.0919 9.8765 18.1631 10.2569L18.9866 14.6569C19.0303 14.8903 18.9651 15.1305 18.8086 15.3126C18.6522 15.4947 18.4206 15.6 18.1764 15.6H17.6931L17.3495 19.2724C17.3109 19.6845 16.9552 20 16.5293 20H14.0587C13.6328 20 13.2771 19.6845 13.2386 19.2724L12.8949 15.6H12.4117C12.1675 15.6 11.9359 15.4947 11.7794 15.3126C11.6229 15.1305 11.5577 14.8903 11.6014 14.6569L12.425 10.2569ZM13.3984 14H13.647C14.0729 14 14.4285 14.3155 14.4671 14.7276L14.8108 18.4H15.7773L16.1209 14.7276C16.1595 14.3155 16.5151 14 16.9411 14H17.1896L16.6655 11.2H13.9225L13.3984 14Z" fill="#C7C5C4"/>
<path d="M7.05883 6.4C7.05883 5.95817 7.42753 5.6 7.88235 5.6C8.33718 5.6 8.70588 5.95817 8.70588 6.4C8.70588 6.84183 8.33718 7.2 7.88235 7.2C7.42753 7.2 7.05883 6.84183 7.05883 6.4Z" fill="#828180"/>
<path fill-rule="evenodd" clip-rule="evenodd" d="M7.05883 6.4C7.05883 5.95817 7.42753 5.6 7.88235 5.6C8.33718 5.6 8.70588 5.95817 8.70588 6.4C8.70588 6.84183 8.33718 7.2 7.88235 7.2C7.42753 7.2 7.05883 6.84183 7.05883 6.4ZM7.88235 4C6.51789 4 5.41177 5.07452 5.41177 6.4C5.41177 7.72548 6.51789 8.8 7.88235 8.8C9.24682 8.8 10.3529 7.72548 10.3529 6.4C10.3529 5.07452 9.24682 4 7.88235 4ZM5.82353 9.6C5.59215 9.6 5.37145 9.69456 5.21542 9.86053C5.05939 10.0265 4.98244 10.2486 5.00339 10.4724L5.82691 19.2724C5.86548 19.6845 6.22113 20 6.64706 20H9.11765C9.54358 20 9.89923 19.6845 9.93779 19.2724L10.7613 10.4724C10.7823 10.2486 10.7053 10.0265 10.5493 9.86053C10.3933 9.69456 10.1726 9.6 9.94118 9.6H5.82353ZM9.94118 10.4H5.82353L6.64706 19.2H9.11765L9.94118 10.4Z" fill="#828180"/>
<path fill-rule="evenodd" clip-rule="evenodd" d="M5.82353 10.4H9.94118L9.11765 19.2H6.64706L5.82353 10.4ZM6.72532 11.2L7.39912 18.4H8.36559L9.03938 11.2H6.72532Z" fill="#828180"/>
<path d="M7.39912 18.4L6.72532 11.2H9.03938L8.36559 18.4H7.39912Z" fill="#828180"/>
</svg>
